<svg width="55" height="83" viewBox="0 0 55 83" fill="none" xmlns="http://www.w3.org/2000/svg">
<path opacity="0.5" d="M0.57625 74.7383C2.81625 72.4983 4.65625 70.7383 6.09625 69.4583C11.9363 64.0183 17.0163 58.9783 21.3363 54.3383C25.6563 49.6983 29.4563 44.6983 32.7363 39.3383C36.0163 33.8983 37.6563 28.8183 37.6563 24.0983C37.6563 18.2583 36.3763 13.8583 33.8163 10.8983C31.2563 7.85833 28.1363 6.33832 24.4563 6.33832C19.2563 6.33832 14.9763 8.05833 11.6163 11.4983C8.25625 14.9383 5.97625 20.2183 4.77625 27.3383H0.57625C0.57625 23.0983 0.73625 19.6583 1.05625 17.0183C1.37625 14.3783 2.17625 12.2183 3.45625 10.5383C5.69625 7.81833 8.93625 5.53833 13.1763 3.69833C17.4163 1.85833 21.9763 0.938329 26.8563 0.938329C34.1363 0.938329 40.5363 2.61833 46.0563 5.97833C51.6563 9.33833 54.4563 15.3783 54.4563 24.0983C54.4563 29.5383 52.5363 35.0983 48.6963 40.7783C44.9363 46.4583 40.6163 51.5783 35.7363 56.1383C30.9363 60.6183 25.2963 65.4183 18.8163 70.5383C14.9763 73.5783 12.3763 75.7783 11.0163 77.1383H35.8563C40.6563 77.1383 44.3363 76.0183 46.8963 73.7783C49.5363 71.4583 50.8563 68.1783 50.8563 63.9383H54.4563V72.9383C54.4563 79.3383 51.0563 82.5383 44.2563 82.5383H0.57625V74.7383Z" fill="#BEAD97"/>
</svg>
