<svg width="59" height="82" viewBox="0 0 59 82" fill="none" xmlns="http://www.w3.org/2000/svg">
<path opacity="0.5" d="M30.0838 81.9386C22.8038 81.9386 16.8838 80.8586 12.3238 78.6986C7.84375 76.5386 3.76375 73.2986 0.0837501 68.9786L3.44375 65.4986C6.72375 69.1786 10.2038 71.9386 13.8838 73.7786C17.6438 75.6186 21.2838 76.5386 24.8038 76.5386C29.7638 76.5386 33.7638 74.9786 36.8038 71.8586C39.9238 68.6586 41.4838 63.8186 41.4838 57.3386C41.4838 51.1786 40.0438 46.5386 37.1638 43.4186C34.2838 40.2986 30.6038 38.7386 26.1238 38.7386C23.1638 38.7386 20.1638 39.1386 17.1238 39.9386L13.5238 41.0186L10.6438 36.4586L43.4038 5.73857H21.9238C17.1238 5.73857 13.4038 6.89857 10.7638 9.21857C8.20375 11.4586 6.92375 14.6986 6.92375 18.9386H3.32375V9.93857C3.32375 3.53857 6.72375 0.338571 13.5238 0.338571H54.0838V5.73857L24.2038 33.8186C24.7638 33.7386 25.7638 33.6586 27.2038 33.5786C28.7238 33.4186 30.2838 33.3386 31.8838 33.3386C35.9638 33.3386 40.0038 34.1786 44.0038 35.8586C48.0838 37.4586 51.4838 40.0586 54.2038 43.6586C56.9238 47.2586 58.2838 51.8186 58.2838 57.3386C58.2838 63.4986 56.6838 68.4186 53.4838 72.0986C50.2838 75.7786 46.5238 78.3386 42.2038 79.7786C37.9638 81.2186 33.9238 81.9386 30.0838 81.9386Z" fill="#BEAD97"/>
</svg>
